<?xml version="1.0" encoding="UTF-8"?>
<svg version="1.1" xmlns="http://www.w3.org/2000/svg" width="512" height="512">
<path d="M0 0 C9.44445345 7.13245124 14.8525384 16.16829008 17.625 27.6875 C18.60750523 38.6892737 17.9218883 49.24216755 11.625 58.6875 C11.77031688 63.474884 14.4359103 66.23579689 17.5 69.625 C18.51135144 70.77929397 19.52039825 71.93561052 20.52734375 73.09375 C21.04409668 73.68671875 21.56084961 74.2796875 22.09326172 74.890625 C24.5121713 77.7282365 26.78425978 80.6741997 29.0625 83.625 C42.40583913 100.76050508 54.45336605 116.10095319 77.046875 120.28125 C98.60024855 122.72835791 114.46904177 111.48340514 131.75 100.3125 C133.96007115 98.8866681 136.17129834 97.46265797 138.3828125 96.0390625 C139.3433252 95.41854004 140.30383789 94.79801758 141.29345703 94.15869141 C143.625 92.6875 143.625 92.6875 145.625 91.6875 C145.46 90.388125 145.295 89.08875 145.125 87.75 C143.58653693 73.22509867 146.21327974 60.8076321 155.25 49.0625 C162.32078781 41.24646206 172.71930047 35.86371562 183.2734375 35.25390625 C184.84878608 35.23057262 186.42460955 35.22968902 188 35.25 C188.82927002 35.25757324 189.65854004 35.26514648 190.51293945 35.27294922 C200.96795527 35.55283924 208.78728124 38.80031309 216.625 45.6875 C217.23085938 46.18894531 217.83671875 46.69039062 218.4609375 47.20703125 C224.94867123 53.02899318 230.03244367 61.91274216 230.80200195 70.71118164 C231.23102752 85.66896149 229.75937926 96.92438121 219.625 108.6875 C212.16873863 116.04338863 202.89013103 120.08198977 192.625 121.6875 C192.4295352 122.88102915 192.4295352 122.88102915 192.23012161 124.09867001 C189.05488627 143.48170852 185.86609822 162.86247289 182.66231155 182.24081326 C181.11329361 191.61218286 179.5688294 200.98426014 178.03515625 210.3581543 C176.69800576 218.53081818 175.35223759 226.70200863 173.99621081 234.87156254 C173.27886269 239.19516324 172.56577627 243.51936795 171.86301422 247.84536552 C171.20056417 251.92235135 170.52655254 255.99726082 169.84386826 260.07090569 C169.59615995 261.56126093 169.35257727 263.05230909 169.11358261 264.54408646 C166.61980469 280.07894412 162.0461903 290.67873317 149.0625 300.3125 C111.54739317 324.89932386 63.30387311 330.2691791 19.625 333.6875 C18.40296875 333.78393799 17.1809375 333.88037598 15.921875 333.97973633 C2.4173886 334.91082291 -11.09360986 334.88708 -24.625 334.875 C-25.8723291 334.87439575 -27.1196582 334.8737915 -28.40478516 334.87316895 C-46.48274358 334.84937299 -64.3868611 334.63016621 -82.375 332.6875 C-83.62394043 332.55859375 -84.87288086 332.4296875 -86.15966797 332.296875 C-128.04315943 327.9155364 -182.68257539 322.07224789 -212.19140625 288.62890625 C-215.89843754 283.41676451 -217.10057851 278.01044828 -218.20019531 271.84301758 C-218.36684315 270.93809224 -218.53349098 270.0331669 -218.70518875 269.10081959 C-221.08992634 255.99011188 -223.24674752 242.83829423 -225.42494488 229.69201255 C-226.0570812 225.88013679 -226.69206772 222.06873576 -227.32672119 218.25727844 C-228.52207063 211.07594524 -229.71494475 203.89420329 -230.90687585 196.71230203 C-232.26652602 188.52059198 -233.62901765 180.3293553 -234.99171972 172.13815248 C-237.7892547 155.32178417 -240.58331323 138.50484014 -243.375 121.6875 C-244.59062622 121.40289917 -244.59062622 121.40289917 -245.83081055 121.11254883 C-246.90113525 120.85497803 -247.97145996 120.59740723 -249.07421875 120.33203125 C-250.13213623 120.08042236 -251.19005371 119.82881348 -252.2800293 119.56958008 C-263.38177055 116.40553565 -270.72438734 109.25352773 -276.796875 99.76171875 C-282.42369535 88.80056129 -283.13729792 76.90304345 -280.56640625 64.91796875 C-276.56142853 53.23562889 -267.80979286 44.31723193 -257.09765625 38.4375 C-247.06798449 33.98673657 -233.63027487 33.8329149 -223.25 37.3125 C-210.87165831 42.79269462 -202.42320719 51.06698204 -197.375 63.6875 C-194.28763695 72.94958915 -194.57581383 82.41519582 -197.375 91.6875 C-196.70855469 91.91566406 -196.04210937 92.14382812 -195.35546875 92.37890625 C-191.5065559 94.0687959 -188.18053358 96.30208234 -184.6875 98.625 C-183.17022197 99.61604104 -181.65195953 100.6055763 -180.1328125 101.59375 C-179.35067383 102.10292969 -178.56853516 102.61210937 -177.76269531 103.13671875 C-160.71908056 114.20635483 -145.48602779 123.55413289 -124.25 119.625 C-102.62711863 114.23137299 -90.57377541 97.73963841 -77.59472656 81.02026367 C-72.41472256 74.38349975 -66.90261904 68.03509743 -61.375 61.6875 C-61.79652344 60.72328125 -62.21804687 59.7590625 -62.65234375 58.765625 C-63.20589032 57.48965324 -63.75926681 56.21360767 -64.3125 54.9375 C-64.59029297 54.30328125 -64.86808594 53.6690625 -65.15429688 53.015625 C-69.94189765 41.94069308 -69.75032283 30.10261535 -65.75390625 18.75390625 C-60.50197809 7.07468924 -51.60814188 -1.17040472 -39.6875 -5.8125 C-25.92731168 -9.81027196 -11.95375943 -7.89801962 0 0 Z " fill="#FFC107" transform="translate(281.375,92.3125)"/>
<path d="M0 0 C1.34132879 0.00132739 2.68265775 0.00249546 4.02398682 0.00350952 C22.66071611 0.02800417 41.0562271 0.45065153 59.55029297 2.89794922 C62.63570416 3.30565569 65.72318092 3.66110164 68.81640625 4.00390625 C100.39981479 7.62668588 145.41297234 13.22132225 168.6875 37.3125 C170.6875 40.3125 170.6875 40.3125 170.8125 43.5 C168.4823907 51.39648153 162.03597146 55.4881872 155.0625 59.3125 C129.99435347 72.34806437 102.29699239 77.07276904 74.6875 81.3125 C73.6365918 81.48346191 72.58568359 81.65442383 71.50292969 81.83056641 C49.58082202 85.23455863 27.63210587 85.66318538 5.50073242 85.62817383 C2.34954473 85.62356304 -0.801255 85.63040681 -3.95239258 85.64868164 C-31.44744337 85.80640632 -58.69572587 84.47558361 -85.875 80 C-86.51886658 79.89611969 -87.16273315 79.79223938 -87.82611084 79.68521118 C-114.97055186 75.28210881 -149.53073273 69.13541292 -169.3125 48.3125 C-171.3125 45.3125 -171.3125 45.3125 -171.3125 42.5625 C-168.68352381 34.01832738 -161.55658141 30.20307418 -154.0546875 26.21875 C-107.88804286 2.48535972 -50.85325429 -0.13877722 0 0 Z " fill="#FFA000" transform="translate(256.3125,319.6875)"/>
<path d="M0 0 C3.46334213 0.00536083 6.92655433 0.00001473 10.38989258 -0.00634766 C30.40926294 -0.01416276 50.33816829 0.4068889 70.2199707 2.88037109 C70.92872345 2.96618439 71.6374762 3.05199768 72.3677063 3.14041138 C93.38006398 5.69558635 114.19839014 9.16286244 134.5324707 15.13037109 C135.32395508 15.35668213 136.11543945 15.58299316 136.9309082 15.81616211 C158.60314119 22.12390927 182.7632818 31.26806102 194.5090332 51.80615234 C197.41213099 58.39906526 197.60914518 66.60542836 195.9543457 73.56005859 C189.57366836 89.85978888 172.59261307 98.42613528 157.5324707 105.13037109 C123.77996041 119.76394739 85.91949366 124.28271244 49.5324707 127.13037109 C48.31043945 127.22680908 47.0884082 127.32324707 45.8293457 127.42260742 C32.3248593 128.353694 18.81386084 128.32995109 5.2824707 128.31787109 C4.0351416 128.31726685 2.7878125 128.3166626 1.50268555 128.31604004 C-16.57527288 128.29224409 -34.4793904 128.07303731 -52.4675293 126.13037109 C-53.71646973 126.00146484 -54.96541016 125.87255859 -56.25219727 125.73974609 C-151.09009704 115.81896498 -151.09009704 115.81896498 -180.4675293 84.13037109 C-186.43074552 75.77944431 -188.14368077 69.34918864 -187.4675293 59.13037109 C-185.68528492 48.78027303 -178.55195517 41.2924197 -170.4128418 35.15771484 C-150.89902112 21.72578788 -128.47447807 14.92554135 -105.4675293 10.13037109 C-103.82026869 9.77026622 -102.17313244 9.40959195 -100.52612305 9.04833984 C-88.79898704 6.53505045 -77.01566261 4.87015501 -65.11108398 3.45068359 C-62.74016903 3.16340613 -60.37342262 2.85550226 -58.0065918 2.53662109 C-38.77515264 -0.00043478 -19.36758878 -0.0355143 0 0 Z M-71.5300293 25.50537109 C-72.92896482 25.72863942 -74.32797373 25.9514484 -75.72705078 26.17382812 C-79.64465532 26.80288772 -83.55638714 27.46230573 -87.4675293 28.13037109 C-88.46139648 28.29794922 -89.45526367 28.46552734 -90.47924805 28.63818359 C-131.44393801 35.67236909 -131.44393801 35.67236909 -164.45581055 58.45458984 C-166.22187195 61.37984213 -166.88454919 62.6552053 -166.4675293 66.13037109 C-157.1612436 81.76726494 -133.4366271 88.69155291 -116.83618164 92.95947266 C-114.99623119 93.40560318 -113.15005071 93.82582707 -111.3034668 94.24365234 C-108.29799919 94.93839893 -105.38107782 95.72559012 -102.4206543 96.57958984 C-95.64038031 98.44280497 -88.78450123 99.55112771 -81.8425293 100.63037109 C-80.64241211 100.83017578 -79.44229492 101.02998047 -78.20581055 101.23583984 C-51.12423411 105.49190341 -24.12074593 106.61161596 3.23950195 106.45294189 C6.399611 106.43943086 9.55958142 106.44480289 12.71970654 106.44979572 C36.21081259 106.47800886 59.34728133 105.37737092 82.5949707 101.81787109 C83.31094421 101.7098819 84.02691772 101.6018927 84.7645874 101.4906311 C132.50617443 94.84079172 132.50617443 94.84079172 172.4074707 70.19287109 C173.00301758 69.54447266 173.59856445 68.89607422 174.2121582 68.22802734 C175.86805354 65.59721138 175.97508596 64.19018962 175.5324707 61.13037109 C169.16892894 49.14490333 151.55356582 43.25642354 139.5324707 39.13037109 C138.6352832 38.82099609 137.7380957 38.51162109 136.8137207 38.19287109 C108.36979177 28.61175819 78.74797824 24.83431797 48.94213867 22.42407227 C47.08322073 22.26394923 45.22464536 22.0947223 43.37123108 21.88008118 C36.31581003 21.08149315 29.32791598 20.96902881 22.23168945 20.96240234 C20.96065872 20.95907394 19.68962799 20.95574554 18.38008118 20.95231628 C15.68971248 20.94726973 12.99944482 20.94447223 10.30908203 20.94506836 C6.29817975 20.94518777 2.28746848 20.92481979 -1.72338867 20.90576172 C-25.0997746 20.85316028 -48.43190127 21.69999498 -71.5300293 25.50537109 Z " fill="#FFD44E" transform="translate(251.467529296875,298.86962890625)"/>
</svg>
