<?xml version="1.0" encoding="UTF-8"?>
<svg version="1.1" xmlns="http://www.w3.org/2000/svg" width="512" height="512">
<path d="M0 0 C1.54179932 -0.0238678 1.54179932 -0.0238678 3.11474609 -0.04821777 C4.77111084 -0.0485199 4.77111084 -0.0485199 6.4609375 -0.04882812 C7.59998535 -0.05644165 8.7390332 -0.06405518 9.91259766 -0.07189941 C12.31996468 -0.08270107 14.72737857 -0.08555328 17.13476562 -0.08105469 C20.8224064 -0.0800817 24.50797181 -0.12172029 28.1953125 -0.16601562 C30.53384982 -0.17122199 32.87239438 -0.17391083 35.2109375 -0.17382812 C36.31518066 -0.19022339 37.41942383 -0.20661865 38.55712891 -0.22351074 C39.58499512 -0.21420532 40.61286133 -0.2048999 41.671875 -0.1953125 C42.57470215 -0.19736694 43.4775293 -0.19942139 44.40771484 -0.20153809 C47.99795003 0.7173181 48.88558939 2.30016964 50.8359375 5.41992188 C51.22162738 8.45554752 51.37689588 11.12440494 51.34387207 14.1565094 C51.35011203 15.03592302 51.356352 15.91533664 51.36278105 16.82139915 C51.37873526 19.76800566 51.36609728 22.71378775 51.35351562 25.66040039 C51.35893562 27.77285241 51.36605758 29.88530064 51.37475586 31.9977417 C51.39300551 37.73522863 51.38591507 43.47242815 51.37323952 49.20992017 C51.36312176 55.20985525 51.37250167 61.20976551 51.37878418 67.20970154 C51.38606358 77.28494695 51.37646456 87.36007512 51.35742188 97.43530273 C51.33564676 109.09097895 51.3427081 120.74637538 51.3647275 132.40204483 C51.38286607 142.40299903 51.38544753 152.40386889 51.37497282 162.40483421 C51.36873018 168.38083766 51.3679236 174.3567095 51.38111877 180.33270454 C51.39265434 185.94948586 51.38469332 191.56590555 51.36154175 197.18264771 C51.35624266 199.24665157 51.35778882 201.31068576 51.36659241 203.37467766 C51.37748388 206.18697174 51.3638619 208.99809878 51.34387207 211.81031799 C51.35279496 212.63180991 51.36171784 213.45330183 51.37091112 214.29968745 C51.3209862 217.90758546 51.15275421 219.9968487 48.95874882 222.92669678 C46.3094647 224.79025267 44.7880048 224.92105086 41.56420898 224.92163086 C40.51309433 224.93101181 39.46197968 224.94039276 38.37901306 224.95005798 C37.24975906 224.93882401 36.12050507 224.92759003 34.95703125 224.91601562 C33.79341568 224.91747086 32.62980011 224.91892609 31.43092346 224.92042542 C28.97223404 224.91876598 26.51353427 224.90719994 24.05493164 224.88647461 C20.28422114 224.85750472 16.51491465 224.8658688 12.74414062 224.87890625 C10.35676398 224.87266949 7.96939178 224.86427905 5.58203125 224.85351562 C3.88511391 224.85791908 3.88511391 224.85791908 2.15391541 224.8624115 C1.10595291 224.84972733 0.05799042 224.83704315 -1.02172852 224.82397461 C-1.94454117 224.81857162 -2.86735382 224.81316864 -3.81813049 224.80760193 C-6.66507447 224.33712649 -7.37910424 223.63772824 -9.1640625 221.41992188 C-9.46123095 218.47778647 -9.57286765 215.74680124 -9.55174255 212.80322266 C-9.55712809 211.91256166 -9.56251363 211.02190067 -9.56806237 210.10424995 C-9.58241596 207.10777252 -9.57522004 204.11173224 -9.56811523 201.11523438 C-9.57381489 198.97189985 -9.58077757 196.82856836 -9.58891296 194.6852417 C-9.60690312 188.85478182 -9.60566511 183.02447195 -9.59997058 177.19399261 C-9.5968875 172.33281169 -9.60296126 167.47165995 -9.60900933 162.61048317 C-9.62307189 151.14654758 -9.62147857 139.68268648 -9.61010742 128.21875 C-9.59862116 116.37678954 -9.61270661 104.53505541 -9.6395039 92.69312477 C-9.6616258 82.53852043 -9.6683063 72.38398732 -9.66242748 62.22936058 C-9.6590487 56.15889443 -9.66153412 50.08857342 -9.67867851 44.01812744 C-9.69408994 38.31192804 -9.69025675 32.60606528 -9.67137337 26.89987946 C-9.66767151 24.8015881 -9.67084204 22.70327212 -9.68125916 20.60500336 C-9.6943617 17.74848188 -9.68301751 14.89309268 -9.66526794 12.03662109 C-9.67487295 11.19917925 -9.68447796 10.3617374 -9.69437402 9.49891853 C-9.62254756 3.91117473 -9.62254756 3.91117473 -7.28450108 1.40602875 C-4.70975239 0.20864562 -2.83938087 0.02647825 0 0 Z " fill="#E56752" transform="translate(437.1640625,198.580078125)"/>
<path d="M0 0 C1.54179932 -0.01891296 1.54179932 -0.01891296 3.11474609 -0.03820801 C4.77111084 -0.02606262 4.77111084 -0.02606262 6.4609375 -0.01367188 C8.16950928 -0.01941223 8.16950928 -0.01941223 9.91259766 -0.02526855 C12.31999597 -0.02798962 14.72742376 -0.02061498 17.13476562 -0.00390625 C20.82228432 0.01749887 24.50785449 -0.0037032 28.1953125 -0.02929688 C30.53385847 -0.02665364 32.87240323 -0.02152874 35.2109375 -0.01367188 C36.31518066 -0.0217688 37.41942383 -0.02986572 38.55712891 -0.03820801 C39.58499512 -0.02559937 40.61286133 -0.01299072 41.671875 0 C43.02611572 0.00477356 43.02611572 0.00477356 44.40771484 0.00964355 C47.72492405 0.70353595 48.75923468 1.85227511 50.8359375 4.51757812 C51.33650875 7.73442936 51.33650875 7.73442936 51.33714294 11.62208557 C51.34544454 12.69596957 51.34544454 12.69596957 51.35391384 13.79154819 C51.36752916 16.19089354 51.3525474 18.5892002 51.33764648 20.98852539 C51.34142933 22.70836835 51.34692908 24.42820827 51.35401917 26.14804077 C51.36799459 30.81947323 51.35678988 35.49053825 51.34030795 40.16195035 C51.3264721 45.04660418 51.33291577 49.93123636 51.33644104 54.81590271 C51.33914407 63.01819797 51.32565872 71.22034696 51.30249023 79.42260742 C51.27587106 88.91233449 51.27413586 98.40181711 51.2858786 107.89156872 C51.29664818 117.0133608 51.29047634 126.13506425 51.27632332 135.25684929 C51.27055728 139.14237494 51.27065102 143.02783588 51.27538872 146.9133625 C51.28015218 151.48607356 51.27008315 156.05851605 51.24843407 160.63117599 C51.24285772 162.31180732 51.24240865 163.99246441 51.24738693 165.67309761 C51.25331899 167.96238371 51.24087578 170.25084287 51.22361755 172.54005432 C51.22118766 173.82260385 51.21875776 175.10515337 51.21625423 176.42656803 C50.8359375 179.51757812 50.8359375 179.51757812 49.46112156 181.42944336 C47.1342248 182.98740675 45.37226751 182.90567643 42.5859375 182.92163086 C40.97912109 182.94065712 40.97912109 182.94065712 39.33984375 182.96006775 C38.18355469 182.95713211 37.02726562 182.95419647 35.8359375 182.95117188 C34.64871094 182.95641373 33.46148437 182.96165558 32.23828125 182.96705627 C29.72657046 182.9734837 27.2148296 182.97213023 24.703125 182.96362305 C20.85101994 182.95511145 17.00039602 182.98386997 13.1484375 183.015625 C10.71093795 183.01723694 8.27343576 183.01665961 5.8359375 183.01367188 C4.67964844 183.02490585 3.52335938 183.03613983 2.33203125 183.04771423 C1.26082031 183.03833328 0.18960938 183.02895233 -0.9140625 183.01928711 C-2.32945312 183.01903786 -2.32945312 183.01903786 -3.7734375 183.01878357 C-6.1640625 182.51757812 -6.1640625 182.51757812 -7.78924656 180.92749119 C-9.65805303 177.65166277 -9.54456226 175.22315738 -9.55174255 171.45776367 C-9.55712809 170.74663013 -9.56251363 170.03549658 -9.56806237 169.30281353 C-9.58237062 166.91979865 -9.57523144 164.537337 -9.56811523 162.15429688 C-9.57381727 160.44592847 -9.58078089 158.73756388 -9.58891296 157.02920532 C-9.60687671 152.38877093 -9.60567011 147.7485253 -9.59997058 143.10806656 C-9.59688375 139.23608756 -9.60296545 135.36414509 -9.60900933 131.49217129 C-9.62306315 122.3596589 -9.62148579 113.22724005 -9.61010742 104.09472656 C-9.59862152 94.66746953 -9.61270784 85.24049681 -9.6395039 75.81327724 C-9.66163991 67.7231594 -9.66830313 59.63313095 -9.66242748 51.54298496 C-9.65905213 46.70936335 -9.66151144 41.87592408 -9.67867851 37.04232788 C-9.69411248 32.49830102 -9.6902318 27.95469645 -9.67137337 23.41068649 C-9.66767779 21.74175473 -9.67082406 20.07279193 -9.68125916 18.4038887 C-9.69440524 16.1278991 -9.68298036 13.85332078 -9.66526794 11.57739258 C-9.66505866 10.30313919 -9.66484938 9.0288858 -9.66463375 7.71601868 C-8.75486434 1.90297335 -5.62058384 0.01981198 0 0 Z " fill="#E56653" transform="translate(235.1640625,240.482421875)"/>
<path d="M0 0 C0.94359375 -0.00016617 1.8871875 -0.00033234 2.859375 -0.00050354 C3.93058594 -0.00988449 5.00179687 -0.01926544 6.10546875 -0.02893066 C7.26175781 -0.01769669 8.41804688 -0.00646271 9.609375 0.00511169 C10.79660156 0.00365646 11.98382813 0.00220123 13.20703125 0.0007019 C15.71877495 0.00236295 18.2305286 0.01394693 20.7421875 0.03465271 C24.59418829 0.06359135 28.44481248 0.05526806 32.296875 0.04222107 C34.73438171 0.04845861 37.17188406 0.05684967 39.609375 0.06761169 C40.76566406 0.06467606 41.92195313 0.06174042 43.11328125 0.05871582 C44.18449219 0.07139999 45.25570312 0.08408417 46.359375 0.09715271 C47.30296875 0.10255569 48.2465625 0.10795868 49.21875 0.11352539 C52.15609933 0.58986599 52.8503129 1.1265916 54.609375 3.50120544 C54.98689842 6.22019196 54.98689842 6.22019196 54.99032593 9.57432556 C55.00301514 11.47981422 55.00301514 11.47981422 55.01596069 13.42379761 C55.01012759 14.83436712 55.00398307 16.24493537 54.99755859 17.65550232 C55.00162299 19.13874702 55.00696413 20.62198869 55.01348877 22.10522461 C55.02718396 26.13618685 55.02185473 30.16691917 55.01235151 34.19788551 C55.00476628 38.41256463 55.01179736 42.62722381 55.01651001 46.84190369 C55.02197089 53.92026817 55.01476727 60.9985388 55.00048828 68.07688904 C54.9841611 76.26522514 54.98944937 84.45333717 55.0059675 92.64166784 C55.01957293 99.66678968 55.02150665 106.69184398 55.01365149 113.71697474 C55.00896977 117.91506277 55.00836376 122.11304541 55.01826096 126.31112671 C55.02691469 130.25757292 55.02093815 134.2037297 55.00357819 138.15014458 C54.99960478 139.60018368 55.00076197 141.05024706 55.00736618 142.50027657 C55.0155372 144.47620409 55.00348403 146.45218472 54.99032593 148.42808533 C54.98919485 149.53494942 54.98806377 150.64181351 54.98689842 151.78221893 C54.609375 154.50120544 54.609375 154.50120544 53.23218632 156.35654545 C50.93848279 157.97442341 49.25879298 157.88891272 46.46704102 157.90525818 C44.89509727 157.92428444 44.89509727 157.92428444 43.29139709 157.94369507 C42.16011887 157.94075943 41.02884064 157.93782379 39.86328125 157.93479919 C38.70062241 157.94004105 37.53796356 157.9452829 36.34007263 157.95068359 C33.87963663 157.95711121 31.41916993 157.9557573 28.95874023 157.94725037 C25.19003646 157.93874643 21.42285058 157.96748447 17.65429688 157.99925232 C15.26562546 158.00086449 12.87695135 158.00028649 10.48828125 157.99729919 C8.79440025 158.01415016 8.79440025 158.01415016 7.06629944 158.03134155 C6.01518478 158.0219606 4.96407013 158.01257965 3.88110352 158.00291443 C2.95749527 158.00274826 2.03388702 158.00258209 1.08229065 158.00241089 C-2.24041132 157.3289725 -3.28758404 156.13519977 -5.390625 153.50120544 C-5.89119625 150.69319916 -5.89119625 150.69319916 -5.89183044 147.39048767 C-5.90166458 146.1370607 -5.91149872 144.88363373 -5.92163086 143.59222412 C-5.91225912 142.20576205 -5.90247982 140.81930269 -5.89233398 139.43284607 C-5.89611755 137.97077921 -5.9016179 136.50871594 -5.90870667 135.04666138 C-5.92267394 131.07759568 -5.91148285 127.10896286 -5.89499545 123.13992119 C-5.88114972 118.98711172 -5.88760448 114.83432751 -5.89112854 110.6815033 C-5.89383105 103.70743327 -5.88035166 96.73353531 -5.85717773 89.75950623 C-5.83056768 81.69555952 -5.82882071 73.63190054 -5.8405661 65.56792498 C-5.85134387 57.81193897 -5.84515683 50.05605708 -5.83101082 42.30007935 C-5.82525099 38.99871358 -5.82533366 35.69742401 -5.83007622 32.39605713 C-5.83484722 28.50867228 -5.82473949 24.62160262 -5.80312157 20.73427773 C-5.79755516 19.30723954 -5.79708709 17.88017105 -5.80207443 16.45313072 C-5.80802605 14.50605453 -5.79369052 12.55894772 -5.77830505 10.61192322 C-5.77587516 9.52202843 -5.77344526 8.43213364 -5.77094173 7.30921173 C-5.23379913 3.3433073 -4.06016088 0.85123126 0 0 Z " fill="#E56752" transform="translate(29.390625,265.49879455566406)"/>
<path d="M0 0 C1.57194374 -0.01902626 1.57194374 -0.01902626 3.17564392 -0.03843689 C4.30692215 -0.03550125 5.43820038 -0.03256561 6.60375977 -0.02954102 C8.34774803 -0.03740379 8.34774803 -0.03740379 10.12696838 -0.04542542 C12.58740439 -0.05185303 15.04787109 -0.05049912 17.50830078 -0.04199219 C21.27700456 -0.03348825 25.04419044 -0.06222629 28.81274414 -0.09399414 C31.20141556 -0.09560631 33.59008967 -0.09502831 35.97875977 -0.09204102 C37.10801376 -0.10327499 38.23726776 -0.11450897 39.40074158 -0.12608337 C40.45185623 -0.11670242 41.50297089 -0.10732147 42.5859375 -0.09765625 C43.50954575 -0.09749008 44.43315399 -0.09732391 45.38475037 -0.09715271 C48.69587049 0.57393829 49.75069204 1.79235553 51.85766602 4.40405273 C52.36103058 7.05588531 52.36103058 7.05588531 52.36560059 10.13513184 C52.37687988 11.30441727 52.38815918 12.4737027 52.39978027 13.67842102 C52.39168335 14.95750839 52.38358643 16.23659576 52.37524414 17.55444336 C52.38066554 18.91799161 52.38778831 20.28153401 52.39648438 21.64506531 C52.41471897 25.34553833 52.40764996 29.04556525 52.39496803 32.74604607 C52.38484093 36.6185921 52.3942329 40.49109993 52.4005127 44.36364746 C52.40778997 50.86693174 52.3981994 57.37003432 52.37915039 63.87329102 C52.35738135 71.39198381 52.36443267 78.91024275 52.38645601 86.42892504 C52.40460783 92.88425425 52.40716945 99.33945284 52.39670134 105.79479933 C52.39046515 109.65032532 52.38963405 113.50564738 52.40284729 117.36116028 C52.41440217 120.98597841 52.40638754 124.61023719 52.38327026 128.23499489 C52.37545796 130.19988358 52.38734222 132.16481959 52.39978027 134.12968445 C52.38850098 135.29896988 52.37722168 136.46825531 52.36560059 137.67297363 C52.36409248 138.68912498 52.36258438 139.70527634 52.36103058 140.75222015 C51.72192335 144.11917423 50.51667224 145.30830793 47.85766602 147.40405273 C45.38475037 147.90525818 45.38475037 147.90525818 42.5859375 147.90576172 C41.53482285 147.91514267 40.48370819 147.92452362 39.40074158 147.93418884 C38.27148758 147.92295486 37.14223358 147.91172089 35.97875977 147.90014648 C34.8151442 147.90160172 33.65152863 147.90305695 32.45265198 147.90455627 C29.99396255 147.90289684 27.53526279 147.8913308 25.07666016 147.87060547 C21.30594965 147.84163558 17.53664317 147.84999966 13.76586914 147.86303711 C11.37849249 147.85680035 8.9911203 147.84840991 6.60375977 147.83764648 C4.90684242 147.84204994 4.90684242 147.84204994 3.17564392 147.84654236 C2.12768143 147.83385818 1.07971893 147.82117401 0 147.80810547 C-0.92281265 147.80270248 -1.84562531 147.7972995 -2.79640198 147.79173279 C-5.68988491 147.31356649 -6.39260415 146.73113197 -8.14233398 144.40405273 C-8.51985741 141.84123993 -8.51985741 141.84123993 -8.52328491 138.71057129 C-8.53174438 137.52438705 -8.54020386 136.33820282 -8.54891968 135.11607361 C-8.54284698 133.81311844 -8.53677429 132.51016327 -8.53051758 131.16772461 C-8.53458224 129.78300055 -8.53992353 128.39827972 -8.54644775 127.01356506 C-8.5601399 123.25118389 -8.554815 119.48904914 -8.5453105 115.72666359 C-8.53772367 111.79225619 -8.54475678 107.85787012 -8.54946899 103.92346191 C-8.55492941 97.31587937 -8.54772748 90.70839736 -8.53344727 84.10083008 C-8.51712015 76.45780426 -8.52240846 68.8150185 -8.53892648 61.1719985 C-8.55253325 54.6139627 -8.55446499 48.05599924 -8.54661047 41.49795389 C-8.54192948 37.57931997 -8.54132074 33.66079894 -8.55121994 29.74217224 C-8.55987563 26.0583667 -8.55389365 22.37487116 -8.53653717 18.69109917 C-8.53066738 16.69141442 -8.53959979 14.6917035 -8.54891968 12.69203186 C-8.54046021 11.50584763 -8.53200073 10.31966339 -8.52328491 9.09753418 C-8.52215384 8.06441353 -8.52102276 7.03129288 -8.51985741 5.96686554 C-8.14233398 3.40405273 -8.14233398 3.40405273 -6.7651453 1.57244015 C-4.47389474 -0.07720839 -2.80713825 0.01643554 0 0 Z " fill="#ADD388" transform="translate(335.142333984375,275.595947265625)"/>
<path d="M0 0 C4.43527675 0.64041586 6.61946169 2.96944084 9.6484375 6.03515625 C10.78831573 7.14009382 11.928939 8.24426333 13.0703125 9.34765625 C13.61751953 9.88519531 14.16472656 10.42273438 14.72851562 10.9765625 C17.2854499 13.45268343 19.98742909 15.75343942 22.6875 18.0703125 C23.21085937 18.53308594 23.73421875 18.99585937 24.2734375 19.47265625 C24.85867188 19.90449219 25.44390625 20.33632812 26.046875 20.78125 C27.2734375 22.47265625 27.2734375 22.47265625 27.21484375 25.3828125 C26.1308772 28.94056162 24.9095729 30.38741818 22.2109375 32.91015625 C21.39882813 33.67714844 20.58671875 34.44414063 19.75 35.234375 C18.52410156 36.34232422 18.52410156 36.34232422 17.2734375 37.47265625 C16.55929687 38.11847656 15.84515625 38.76429687 15.109375 39.4296875 C13.7892192 40.59947807 12.45756803 41.75645923 11.11328125 42.8984375 C9.9335801 43.90782086 8.77695847 44.94520858 7.65234375 46.015625 C5.07048938 48.40970815 3.55682446 49.43450801 0.0234375 49.91015625 C-2.7265625 49.47265625 -2.7265625 49.47265625 -4.7265625 47.47265625 C-5.4765625 44.41015625 -5.4765625 44.41015625 -4.7265625 40.47265625 C0.2234375 36.01765625 0.2234375 36.01765625 5.2734375 31.47265625 C-18.9815625 30.97765625 -18.9815625 30.97765625 -43.7265625 30.47265625 C-44.3865625 32.45265625 -45.0465625 34.43265625 -45.7265625 36.47265625 C-46.48734044 38.10583205 -47.28749321 39.72121703 -48.125 41.31640625 C-48.59800537 42.22116699 -49.07101074 43.12592773 -49.55834961 44.05810547 C-50.06760986 45.01990723 -50.57687012 45.98170898 -51.1015625 46.97265625 C-51.63467041 47.98730957 -52.16777832 49.00196289 -52.71704102 50.04736328 C-56.78423276 57.76110581 -60.95417524 65.41638975 -65.15380859 73.05859375 C-68.94476735 79.97939755 -72.6048132 86.96201904 -76.2265625 93.97265625 C-81.80034035 104.75883238 -87.49032699 115.47971971 -93.421875 126.07421875 C-94.3134419 127.71320701 -95.16086899 129.37677856 -95.96875 131.05859375 C-98.98050156 137.13964627 -98.98050156 137.13964627 -102.67578125 138.7890625 C-106.7256558 138.3690371 -108.4054951 137.00161239 -111.5390625 134.41015625 C-112.08892822 133.96406006 -112.63879395 133.51796387 -113.20532227 133.05834961 C-115.06020659 131.5465534 -116.89293696 130.01014521 -118.7265625 128.47265625 C-120.10293912 127.33835259 -121.4805827 126.20558482 -122.859375 125.07421875 C-125.02831375 123.2927409 -127.19536694 121.50921968 -129.35668945 119.71850586 C-133.76291377 116.0687912 -138.21104711 112.48602865 -142.7265625 108.97265625 C-149.39023835 103.78276098 -155.90124263 98.41711608 -162.41015625 93.03515625 C-172.43496142 84.7487697 -182.55558423 76.57872114 -192.7265625 68.47265625 C-194.60181517 66.97297214 -196.47681798 65.47297554 -198.3515625 63.97265625 C-199.60839844 62.9671875 -199.60839844 62.9671875 -200.890625 61.94140625 C-201.79941406 61.214375 -201.79941406 61.214375 -202.7265625 60.47265625 C-205.95204403 61.87944431 -207.98273125 63.5354418 -210.37109375 66.10546875 C-211.38719727 67.19214844 -211.38719727 67.19214844 -212.42382812 68.30078125 C-213.12185547 69.05875 -213.81988281 69.81671875 -214.5390625 70.59765625 C-215.56870117 71.69980469 -215.56870117 71.69980469 -216.61914062 72.82421875 C-220.51887296 77.01541641 -224.32547812 81.2765339 -228.08081055 85.59716797 C-230.57519409 88.43975132 -233.14817419 91.20643833 -235.7265625 93.97265625 C-238.9390294 97.4346736 -242.13762915 100.89918433 -245.2265625 104.47265625 C-248.78474097 108.58625771 -252.4849837 112.563609 -256.18139648 116.55249023 C-259.97557514 120.64977694 -263.72210378 124.78684968 -267.44921875 128.9453125 C-270.02466025 131.80347828 -272.62342014 134.63975886 -275.2265625 137.47265625 C-278.57949367 141.12192796 -281.91654607 144.78435223 -285.2265625 148.47265625 C-288.68506159 152.32516156 -292.16700446 156.15518714 -295.6640625 159.97265625 C-296.13714844 160.48957031 -296.61023438 161.00648438 -297.09765625 161.5390625 C-302.51520769 167.44482352 -302.51520769 167.44482352 -305.57421875 167.84765625 C-309.48971496 167.38187231 -310.52446673 166.33988688 -313.1640625 163.47265625 C-314.33195312 162.22355469 -314.33195312 162.22355469 -315.5234375 160.94921875 C-317.89801771 158.27992113 -320.26344287 155.60595419 -322.58984375 152.89453125 C-325.52676999 149.5656569 -328.56502491 146.33556212 -331.6015625 143.09765625 C-336.26979169 138.11723427 -340.890575 133.10359356 -345.4375 128.01171875 C-348.74543897 124.34250317 -352.10835952 120.72443241 -355.47900391 117.11279297 C-355.95772949 116.5973291 -356.43645508 116.08186523 -356.9296875 115.55078125 C-357.34895508 115.1012207 -357.76822266 114.65166016 -358.20019531 114.18847656 C-359.7265625 112.47265625 -359.7265625 112.47265625 -361.68725586 109.31689453 C-363.4507332 107.2101326 -364.39145877 106.54657208 -367.10348511 105.94836426 C-370.13695112 105.77723593 -373.1152652 105.79864598 -376.15234375 105.88671875 C-377.25507126 105.89520844 -378.35779877 105.90369812 -379.49394226 105.91244507 C-383.00998341 105.9459853 -386.52371661 106.02127224 -390.0390625 106.09765625 C-392.42509705 106.12775475 -394.81116761 106.15513075 -397.19726562 106.1796875 C-403.04114971 106.24577866 -408.88369123 106.34613522 -414.7265625 106.47265625 C-413.6578894 107.37866577 -413.6578894 107.37866577 -412.56762695 108.30297852 C-411.6468335 109.10276123 -410.72604004 109.90254395 -409.77734375 110.7265625 C-408.85864502 111.51619385 -407.93994629 112.3058252 -406.9934082 113.11938477 C-404.76995031 115.42761423 -403.98101815 116.27474244 -403.9140625 119.41015625 C-404.7265625 122.47265625 -404.7265625 122.47265625 -407.7265625 124.47265625 C-409.95703125 125.0078125 -409.95703125 125.0078125 -412.7265625 124.47265625 C-415.41269673 122.53992132 -417.70033371 120.24359779 -420.0390625 117.91015625 C-421.36987939 116.61593763 -422.70189946 115.32295498 -424.03515625 114.03125 C-424.67050293 113.4110498 -425.30584961 112.79084961 -425.96044922 112.15185547 C-428.08053454 110.1361039 -430.31837162 108.3000377 -432.6015625 106.47265625 C-435.04102646 104.34813402 -435.73724636 103.44721848 -437.0390625 100.34765625 C-436.59073835 96.22307404 -434.85608224 95.1457877 -431.7265625 92.47265625 C-430.61462608 91.35533515 -429.51090442 90.22979883 -428.4140625 89.09765625 C-415.01822917 75.70182292 -415.01822917 75.70182292 -409.6015625 75.16015625 C-406.7265625 75.47265625 -406.7265625 75.47265625 -404.7265625 77.47265625 C-404.328125 80.296875 -404.328125 80.296875 -404.7265625 83.47265625 C-406.625 85.9921875 -406.625 85.9921875 -409.1015625 88.28515625 C-409.91367187 89.05472656 -410.72578125 89.82429688 -411.5625 90.6171875 C-413.7265625 92.47265625 -413.7265625 92.47265625 -415.7265625 93.47265625 C-415.06052002 93.44743393 -414.39447754 93.42221161 -413.70825195 93.39622498 C-406.69840711 93.14806281 -399.69363145 93.02326233 -392.6796875 92.96606445 C-390.07229824 92.9291887 -387.46513758 92.8621361 -384.859375 92.76293945 C-362.04840998 91.9276453 -362.04840998 91.9276453 -354.51074219 98.17919922 C-350.98711982 101.66201949 -347.98028389 105.42446345 -345.14321899 109.4798584 C-343.27618838 112.10619344 -341.18648198 114.38082047 -338.9765625 116.72265625 C-338.29851562 117.48320312 -337.62046875 118.24375 -336.921875 119.02734375 C-334.25922535 121.99321328 -331.55803954 124.92181618 -328.8515625 127.84765625 C-328.0949231 128.66617065 -328.0949231 128.66617065 -327.32299805 129.5012207 C-326.30149526 130.606178 -325.27992932 131.71107693 -324.25830078 132.81591797 C-321.7659749 135.51163416 -319.27538075 138.20889728 -316.7890625 140.91015625 C-315.93441406 141.83699219 -315.07976562 142.76382813 -314.19921875 143.71875 C-311.62988186 146.58033374 -309.1706063 149.50395189 -306.7265625 152.47265625 C-302.7344574 150.90931439 -300.31055172 148.11211155 -297.5390625 144.97265625 C-297.05566406 144.43511719 -296.57226562 143.89757812 -296.07421875 143.34375 C-294.61973271 141.72467738 -293.17292208 140.09898697 -291.7265625 138.47265625 C-290.22739512 136.8052406 -288.72745874 135.13851586 -287.2265625 133.47265625 C-286.50726563 132.67085937 -285.78796875 131.8690625 -285.046875 131.04296875 C-282.41576467 128.12837178 -279.76003775 125.23726401 -277.1015625 122.34765625 C-274.1243361 119.11052534 -271.16703284 115.86127769 -268.2890625 112.53515625 C-264.70718941 108.40354725 -260.98818292 104.40335698 -257.27197266 100.39306641 C-253.47769211 96.29571696 -249.73109803 92.15854852 -246.00390625 88 C-243.42846475 85.14183422 -240.82970486 82.30555364 -238.2265625 79.47265625 C-234.14108711 75.0260962 -230.08967037 70.55060899 -226.05859375 66.0546875 C-224.33579991 64.14720554 -222.60512336 62.2493113 -220.86328125 60.359375 C-220.12851562 59.56176758 -220.12851562 59.56176758 -219.37890625 58.74804688 C-217.98971605 57.2421647 -216.59843337 55.73821365 -215.20703125 54.234375 C-212.7013329 51.55768695 -212.7013329 51.55768695 -210.77734375 48.6796875 C-208.7265625 46.47265625 -208.7265625 46.47265625 -205.89453125 45.35546875 C-201.51468809 45.51748514 -199.21708068 47.59349255 -196.0390625 50.34765625 C-195.42530762 50.85506348 -194.81155273 51.3624707 -194.17919922 51.88525391 C-192.93159027 52.91882025 -191.68996536 53.95965469 -190.45458984 55.0078125 C-188.115874 56.99033511 -185.73289128 58.91665439 -183.3515625 60.84765625 C-182.47371094 61.56953125 -181.59585938 62.29140625 -180.69140625 63.03515625 C-172.12462692 70.07820013 -163.53482541 77.09010061 -154.7890625 83.91015625 C-148.11067366 89.12218451 -141.57994455 94.50530686 -135.05078125 99.90234375 C-130.76827032 103.44188117 -126.47144029 106.96343118 -122.1640625 110.47265625 C-121.53387207 110.98812012 -120.90368164 111.50358398 -120.25439453 112.03466797 C-112.87461566 118.33001655 -112.87461566 118.33001655 -104.7265625 123.47265625 C-104.45521484 122.59641602 -104.18386719 121.72017578 -103.90429688 120.81738281 C-102.78985168 117.65239542 -101.48396658 114.89999755 -99.8828125 111.95703125 C-99.3053125 110.88839844 -98.7278125 109.81976563 -98.1328125 108.71875 C-97.50375 107.56503906 -96.8746875 106.41132813 -96.2265625 105.22265625 C-94.85979939 102.697791 -93.49652324 100.1710461 -92.1328125 97.64453125 C-91.77590332 96.9844104 -91.41899414 96.32428955 -91.05126953 95.64416504 C-87.27845883 88.6601036 -83.56863523 81.64310011 -79.86236572 74.62356567 C-73.72175747 62.99488572 -67.55727843 51.37922712 -61.3515625 39.78515625 C-60.73925781 38.63982422 -60.12695312 37.49449219 -59.49609375 36.31445312 C-57.91406063 33.36287215 -56.32376883 30.41604837 -54.7265625 27.47265625 C-54.11893066 26.3441626 -54.11893066 26.3441626 -53.49902344 25.19287109 C-50.96472902 20.59173951 -50.96472902 20.59173951 -48.7265625 19.47265625 C-47.00129129 19.35348457 -45.27163352 19.29548299 -43.54248047 19.26733398 C-42.46151093 19.24738876 -41.38054138 19.22744354 -40.26681519 19.20689392 C-39.09595367 19.19018143 -37.92509216 19.17346893 -36.71875 19.15625 C-35.52299347 19.1354689 -34.32723694 19.11468781 -33.09524536 19.09327698 C-29.26407786 19.02773336 -25.43284012 18.96887407 -21.6015625 18.91015625 C-19.00910723 18.86697562 -16.41665914 18.82336148 -13.82421875 18.77929688 C-7.45840823 18.67204706 -1.09252737 18.57028965 5.2734375 18.47265625 C4.56026367 17.8686499 3.84708984 17.26464355 3.11230469 16.64233398 C2.19094727 15.84255127 1.26958984 15.04276855 0.3203125 14.21875 C-1.05882324 13.03430298 -1.05882324 13.03430298 -2.46582031 11.82592773 C-4.69683318 9.50360235 -5.45511961 8.68272497 -5.4765625 5.53515625 C-4.53734414 1.70001461 -3.93051161 0.68136376 0 0 Z " fill="#B0CCDD" transform="translate(460.7265625,88.52734375)"/>
<path d="M0 0 C1.07121094 -0.00938095 2.14242187 -0.0187619 3.24609375 -0.02842712 C4.40238281 -0.01719315 5.55867187 -0.00595917 6.75 0.00561523 C7.93722656 0.00416 9.12445313 0.00270477 10.34765625 0.00120544 C12.85939995 0.00286649 15.3711536 0.01445047 17.8828125 0.03515625 C21.73481329 0.06409489 25.58543748 0.0557716 29.4375 0.04272461 C31.87500671 0.04896215 34.31250906 0.05735321 36.75 0.06811523 C37.90628906 0.0651796 39.06257813 0.06224396 40.25390625 0.05921936 C41.32511719 0.07190353 42.39632812 0.08458771 43.5 0.09765625 C44.44359375 0.10305923 45.3871875 0.10846222 46.359375 0.11402893 C49.25353859 0.58336624 49.96054946 1.2250908 51.75 3.50170898 C52.12752342 5.51791382 52.12752342 5.51791382 52.13095093 7.86645508 C52.14364014 9.20398834 52.14364014 9.20398834 52.15658569 10.56854248 C52.150513 11.5442218 52.14444031 12.51990112 52.13818359 13.52514648 C52.14344055 14.55464417 52.14869751 15.58414185 52.15411377 16.64483643 C52.1673422 20.05561391 52.1585654 23.46592656 52.1484375 26.87670898 C52.15045741 29.24178151 52.15336815 31.60685344 52.15713501 33.97192383 C52.16156223 38.93178225 52.15511437 43.89147874 52.14111328 48.85131836 C52.12402136 55.21724334 52.1338604 61.5827889 52.15183067 67.94869995 C52.16265767 72.83336255 52.15922712 77.71793481 52.1514473 82.6026001 C52.14944229 84.95021611 52.15191503 87.29784026 52.15888596 89.64544678 C52.16648243 92.92327687 52.15492105 96.20048766 52.13818359 99.47827148 C52.14729263 100.94179047 52.14729263 100.94179047 52.15658569 102.43487549 C52.14812622 103.32656433 52.13966675 104.21825317 52.13095093 105.13696289 C52.12981985 105.91198151 52.12868877 106.68700012 52.12752342 107.48550415 C51.64874776 110.04245755 50.78962811 110.9315494 48.75 112.50170898 C46.359375 112.88938904 46.359375 112.88938904 43.5 112.90576172 C42.42878906 112.91844589 41.35757813 112.93113007 40.25390625 112.94419861 C39.09761719 112.94126297 37.94132812 112.93832733 36.75 112.93530273 C35.56277344 112.94054459 34.37554687 112.94578644 33.15234375 112.95118713 C30.64063296 112.95761456 28.1288921 112.95626109 25.6171875 112.94775391 C21.76508244 112.93924231 17.91445852 112.96800083 14.0625 112.99975586 C11.62500045 113.0013678 9.18749826 113.00079047 6.75 112.99780273 C5.59371094 113.00903671 4.43742188 113.02027069 3.24609375 113.03184509 C1.63927734 113.01777367 1.63927734 113.01777367 0 113.00341797 C-1.41539062 113.00316872 -1.41539062 113.00316872 -2.859375 113.00291443 C-5.25 112.50170898 -5.25 112.50170898 -7.05386353 111.09144592 C-8.94193304 107.00361525 -8.66657197 103.01369921 -8.63818359 98.56420898 C-8.64344055 97.55567871 -8.64869751 96.54714844 -8.65411377 95.50805664 C-8.66732365 92.17245014 -8.65857194 88.83732039 -8.6484375 85.50170898 C-8.65045794 83.1853018 -8.65336913 80.86889524 -8.65713501 78.55249023 C-8.66155971 73.6969599 -8.65512244 68.84159509 -8.64111328 63.98608398 C-8.62402151 57.75816676 -8.63386188 51.53063737 -8.65183067 45.30273438 C-8.66266444 40.51925731 -8.659224 35.7358724 -8.6514473 30.95239258 C-8.64944417 28.65584263 -8.65190848 26.35928436 -8.65888596 24.06274414 C-8.66649354 20.85467322 -8.6549054 17.64723287 -8.63818359 14.43920898 C-8.64425629 13.48739746 -8.65032898 12.53558594 -8.65658569 11.55493164 C-8.62156533 7.93349272 -8.58372827 5.22425899 -7.05386353 1.91197205 C-4.60969662 0.0011189 -3.09000452 0.00054415 0 0 Z " fill="#ADD388" transform="translate(133.25,310.498291015625)"/>
</svg>
