<?xml version="1.0" encoding="UTF-8"?>
<svg version="1.1" xmlns="http://www.w3.org/2000/svg" width="512" height="512">
<path d="M0 0 C0.74698179 -0.00265183 1.49396358 -0.00530365 2.26358119 -0.00803584 C4.78067094 -0.0157295 7.29771192 -0.01628804 9.81481266 -0.01688576 C11.63216259 -0.02090035 13.44951163 -0.02533857 15.26685959 -0.03016531 C20.27221919 -0.04213726 25.27756915 -0.04778072 30.28294027 -0.05234647 C35.6771768 -0.05830028 41.07140178 -0.06991075 46.46563053 -0.08063698 C59.4993609 -0.10516713 72.5330951 -0.11978959 85.56684145 -0.13269705 C89.24805315 -0.13640871 92.92926446 -0.14038197 96.61047578 -0.14444971 C119.46869421 -0.16968734 142.32691323 -0.19174121 165.18514252 -0.20417786 C170.48064965 -0.20710757 175.77615677 -0.21006923 181.07166386 -0.21308327 C182.38784354 -0.21382932 183.70402323 -0.21457537 185.06008715 -0.21534403 C206.37770006 -0.22799552 227.69521259 -0.26121535 249.01278996 -0.3028851 C270.89793009 -0.34531362 292.78302751 -0.36887401 314.66820866 -0.37409842 C326.95633484 -0.37751162 339.24433065 -0.38925614 351.53241634 -0.42220116 C361.99859391 -0.45021543 372.46461439 -0.4611949 382.93082654 -0.4500057 C388.26916785 -0.44482253 393.60718024 -0.44768392 398.94547367 -0.47247124 C403.83808051 -0.494999 408.73012283 -0.49419628 413.6227398 -0.47526737 C415.387316 -0.47247231 417.15193077 -0.47803823 418.91644507 -0.4930803 C434.69485853 -0.61930104 446.57050812 2.60746298 458.31311893 13.71904564 C466.10689536 21.97482427 469.7878283 31.98746779 469.79514408 43.12332726 C469.79952634 43.93428307 469.80390859 44.74523889 469.80842364 45.58076912 C469.82179253 48.3019125 469.8279863 51.02302349 469.83411503 53.74419212 C469.84201773 55.69410917 469.85028678 57.64402477 469.8588953 59.59393883 C469.88510388 66.00281442 469.90042539 72.41169648 469.91468143 78.82060814 C469.92004227 81.02931345 469.92541978 83.23801871 469.93081379 85.44672394 C469.952444 94.63856598 469.97117824 103.83040629 469.98243618 113.02226734 C469.99865816 126.17949294 470.03179199 139.33642243 470.08883703 152.49353641 C470.12760551 161.75234235 470.14707726 171.01106932 470.15235674 180.26995426 C470.15600173 185.79530425 470.16793189 191.32033831 470.20045948 196.84560013 C470.23066028 202.05037854 470.23680915 207.25465188 470.22507572 212.45949936 C470.22485597 214.36171672 470.23307908 216.26395834 470.25072956 218.16609383 C470.39466269 234.58139041 467.71083149 246.49557372 456.05921268 258.80888939 C448.05664871 266.36362132 438.12901678 270.29272467 427.28248787 270.27402878 C426.53550608 270.2766806 425.78852429 270.27933243 425.01890668 270.28206462 C422.50181692 270.28975827 419.98477595 270.29031682 417.46767521 270.29091454 C415.65032528 270.29492913 413.83297624 270.29936734 412.01562828 270.30419409 C407.01026868 270.31616603 402.00491872 270.3218095 396.9995476 270.32637525 C391.60531107 270.33232905 386.21108609 270.34393953 380.81685734 270.35466576 C367.78312697 270.37919591 354.74939277 270.39381837 341.71564642 270.40672582 C338.03443472 270.41043749 334.35322341 270.41441075 330.67201209 270.41847849 C307.81379366 270.44371612 284.95557464 270.46576999 262.09734535 270.47820663 C256.80183822 270.48113635 251.5063311 270.48409801 246.21082401 270.48711205 C244.23655448 270.48823112 244.23655448 270.48823112 242.22240072 270.4893728 C220.90478781 270.5020243 199.58727528 270.53524413 178.26969791 270.57691388 C156.38455778 270.61934239 134.49946036 270.64290279 112.61427921 270.6481272 C100.32615303 270.6515404 88.03815722 270.66328492 75.75007153 270.69622993 C65.28389396 270.72424421 54.81787348 270.73522368 44.35166133 270.72403447 C39.01332002 270.71885131 33.67530763 270.7217127 28.3370142 270.74650002 C23.44440736 270.76902778 18.55236504 270.76822506 13.65974807 270.74929614 C11.89517187 270.74650109 10.1305571 270.75206701 8.3660428 270.76710908 C-7.41237067 270.89332982 -19.28802025 267.6665658 -31.03063107 256.55498314 C-38.82440749 248.2992045 -42.50534043 238.28656099 -42.51265621 227.15070152 C-42.51703847 226.33974571 -42.52142072 225.52878989 -42.52593577 224.69325966 C-42.53930466 221.97211628 -42.54549843 219.25100528 -42.55162716 216.52983665 C-42.55952986 214.57991961 -42.56779891 212.63000401 -42.57640743 210.68008995 C-42.60261601 204.27121436 -42.61793752 197.86233229 -42.63219357 191.45342064 C-42.6375544 189.24471533 -42.64293191 187.03601007 -42.64832592 184.82730484 C-42.66995613 175.63546279 -42.68869037 166.44362249 -42.69994831 157.25176144 C-42.71617029 144.09453583 -42.74930412 130.93760635 -42.80634916 117.78049237 C-42.84511764 108.52168643 -42.86458939 99.26295946 -42.86986887 90.00407451 C-42.87351386 84.47872453 -42.88544402 78.95369046 -42.91797161 73.42842865 C-42.94817241 68.22365024 -42.95432128 63.0193769 -42.94258785 57.81452942 C-42.9423681 55.91231205 -42.95059121 54.01007044 -42.96824169 52.10793495 C-43.11217482 35.69263837 -40.42834362 23.77845506 -28.77672482 11.46513939 C-20.77416084 3.91040746 -10.84652891 -0.0186959 0 0 Z " fill="#FD7600" transform="translate(42.35875606536865,240.8629856109619)"/>
<path d="M0 0 C0.74698179 -0.00265183 1.49396358 -0.00530365 2.26358119 -0.00803584 C4.78067094 -0.0157295 7.29771192 -0.01628804 9.81481266 -0.01688576 C11.63216259 -0.02090035 13.44951163 -0.02533857 15.26685959 -0.03016531 C20.27221919 -0.04213726 25.27756915 -0.04778072 30.28294027 -0.05234647 C35.6771768 -0.05830028 41.07140178 -0.06991075 46.46563053 -0.08063698 C59.4993609 -0.10516713 72.5330951 -0.11978959 85.56684145 -0.13269705 C89.24805315 -0.13640871 92.92926446 -0.14038197 96.61047578 -0.14444971 C119.46869421 -0.16968734 142.32691323 -0.19174121 165.18514252 -0.20417786 C170.48064965 -0.20710757 175.77615677 -0.21006923 181.07166386 -0.21308327 C182.38784354 -0.21382932 183.70402323 -0.21457537 185.06008715 -0.21534403 C206.37770006 -0.22799552 227.69521259 -0.26121535 249.01278996 -0.3028851 C270.89793009 -0.34531362 292.78302751 -0.36887401 314.66820866 -0.37409842 C326.95633484 -0.37751162 339.24433065 -0.38925614 351.53241634 -0.42220116 C361.99859391 -0.45021543 372.46461439 -0.4611949 382.93082654 -0.4500057 C388.26916785 -0.44482253 393.60718024 -0.44768392 398.94547367 -0.47247124 C403.83808051 -0.494999 408.73012283 -0.49419628 413.6227398 -0.47526737 C415.387316 -0.47247231 417.15193077 -0.47803823 418.91644507 -0.4930803 C434.69485853 -0.61930104 446.57050812 2.60746298 458.31311893 13.71904564 C466.10689536 21.97482427 469.7878283 31.98746779 469.79514408 43.12332726 C469.79952634 43.93428307 469.80390859 44.74523889 469.80842364 45.58076912 C469.82179253 48.3019125 469.8279863 51.02302349 469.83411503 53.74419212 C469.84201773 55.69410917 469.85028678 57.64402477 469.8588953 59.59393883 C469.88510388 66.00281442 469.90042539 72.41169648 469.91468143 78.82060814 C469.92004227 81.02931345 469.92541978 83.23801871 469.93081379 85.44672394 C469.952444 94.63856598 469.97117824 103.83040629 469.98243618 113.02226734 C469.99865816 126.17949294 470.03179199 139.33642243 470.08883703 152.49353641 C470.12760551 161.75234235 470.14707726 171.01106932 470.15235674 180.26995426 C470.15600173 185.79530425 470.16793189 191.32033831 470.20045948 196.84560013 C470.23066028 202.05037854 470.23680915 207.25465188 470.22507572 212.45949936 C470.22485597 214.36171672 470.23307908 216.26395834 470.25072956 218.16609383 C470.39466269 234.58139041 467.71083149 246.49557372 456.05921268 258.80888939 C448.05664871 266.36362132 438.12901678 270.29272467 427.28248787 270.27402878 C426.53550608 270.2766806 425.78852429 270.27933243 425.01890668 270.28206462 C422.50181692 270.28975827 419.98477595 270.29031682 417.46767521 270.29091454 C415.65032528 270.29492913 413.83297624 270.29936734 412.01562828 270.30419409 C407.01026868 270.31616603 402.00491872 270.3218095 396.9995476 270.32637525 C391.60531107 270.33232905 386.21108609 270.34393953 380.81685734 270.35466576 C367.78312697 270.37919591 354.74939277 270.39381837 341.71564642 270.40672582 C338.03443472 270.41043749 334.35322341 270.41441075 330.67201209 270.41847849 C307.81379366 270.44371612 284.95557464 270.46576999 262.09734535 270.47820663 C256.80183822 270.48113635 251.5063311 270.48409801 246.21082401 270.48711205 C244.23655448 270.48823112 244.23655448 270.48823112 242.22240072 270.4893728 C220.90478781 270.5020243 199.58727528 270.53524413 178.26969791 270.57691388 C156.38455778 270.61934239 134.49946036 270.64290279 112.61427921 270.6481272 C100.32615303 270.6515404 88.03815722 270.66328492 75.75007153 270.69622993 C65.28389396 270.72424421 54.81787348 270.73522368 44.35166133 270.72403447 C39.01332002 270.71885131 33.67530763 270.7217127 28.3370142 270.74650002 C23.44440736 270.76902778 18.55236504 270.76822506 13.65974807 270.74929614 C11.89517187 270.74650109 10.1305571 270.75206701 8.3660428 270.76710908 C-7.41237067 270.89332982 -19.28802025 267.6665658 -31.03063107 256.55498314 C-38.82440749 248.2992045 -42.50534043 238.28656099 -42.51265621 227.15070152 C-42.51703847 226.33974571 -42.52142072 225.52878989 -42.52593577 224.69325966 C-42.53930466 221.97211628 -42.54549843 219.25100528 -42.55162716 216.52983665 C-42.55952986 214.57991961 -42.56779891 212.63000401 -42.57640743 210.68008995 C-42.60261601 204.27121436 -42.61793752 197.86233229 -42.63219357 191.45342064 C-42.6375544 189.24471533 -42.64293191 187.03601007 -42.64832592 184.82730484 C-42.66995613 175.63546279 -42.68869037 166.44362249 -42.69994831 157.25176144 C-42.71617029 144.09453583 -42.74930412 130.93760635 -42.80634916 117.78049237 C-42.84511764 108.52168643 -42.86458939 99.26295946 -42.86986887 90.00407451 C-42.87351386 84.47872453 -42.88544402 78.95369046 -42.91797161 73.42842865 C-42.94817241 68.22365024 -42.95432128 63.0193769 -42.94258785 57.81452942 C-42.9423681 55.91231205 -42.95059121 54.01007044 -42.96824169 52.10793495 C-43.11217482 35.69263837 -40.42834362 23.77845506 -28.77672482 11.46513939 C-20.77416084 3.91040746 -10.84652891 -0.0186959 0 0 Z M-9.35875607 35.13701439 C-12.45568362 39.56830948 -12.79134278 43.63867935 -12.74643612 48.90395164 C-12.75182166 49.66705796 -12.75720719 50.43016427 -12.76275593 51.21639502 C-12.77701894 53.76350567 -12.769936 56.31009539 -12.7628088 58.85722923 C-12.76851328 60.68747944 -12.77547785 62.5177261 -12.78360653 64.34796715 C-12.80154553 69.31291802 -12.800368 74.27769222 -12.79466414 79.24266577 C-12.79157301 83.39023854 -12.79766399 87.53777735 -12.80370289 91.68534529 C-12.81774929 101.47199812 -12.81618619 111.25856367 -12.80480099 121.04521751 C-12.79332264 131.13476115 -12.80739046 141.2240389 -12.83419746 151.31354749 C-12.85636508 159.98210596 -12.86298935 168.65058103 -12.85712105 177.31916583 C-12.85375246 182.49381796 -12.85615998 187.66829969 -12.87337208 192.84292793 C-12.88885572 197.71036931 -12.88486983 202.57741737 -12.86606693 207.44484329 C-12.86238483 209.22820079 -12.86547847 211.01158752 -12.87595272 212.79491806 C-12.88919096 215.23576584 -12.87759118 217.67531693 -12.85996151 220.11610985 C-12.86956652 220.81632173 -12.87917152 221.51653361 -12.88906759 222.23796403 C-12.81265213 227.40502813 -11.68341753 232.12698434 -8.35875607 236.13701439 C-3.33163673 239.62070878 -0.04173693 240.63707041 6.18287754 240.63758564 C6.91316959 240.64309981 7.64346163 240.64861397 8.39588374 240.65429524 C10.83840957 240.66787039 13.2799142 240.65300466 15.72242069 240.63821983 C17.49301713 240.64211342 19.26361044 240.64775433 21.03419638 240.65499073 C25.89625308 240.66975502 30.75798623 240.6595583 35.62003255 240.64525402 C40.86482577 240.63415369 46.10957325 240.64608372 51.35436344 240.65509605 C61.62755451 240.6690369 71.90062275 240.66146606 82.17380798 240.64642047 C94.13445731 240.62956956 106.09507597 240.63276948 118.0557335 240.63651455 C139.39497146 240.64239468 160.73415043 240.62821554 182.07337284 240.60356712 C202.7853094 240.57964592 223.49716714 240.57256268 244.20911503 240.58305931 C266.75681534 240.59446579 289.30447918 240.59640191 311.85217905 240.58196121 C314.25598335 240.58043536 316.65978765 240.578915 319.06359196 240.57740021 C320.24634536 240.57664239 321.42909877 240.57588458 322.64769319 240.5751038 C330.98714745 240.57035889 339.32658545 240.57221388 347.66603947 240.57646561 C357.82744589 240.5813897 367.98877777 240.57541932 378.15016711 240.55557131 C383.33580111 240.54569227 388.52132154 240.54060084 393.70696163 240.54846382 C398.45285309 240.55551283 403.19851522 240.54873417 407.94437641 240.53086019 C409.66231098 240.52681065 411.38026639 240.52782404 413.09819323 240.53437906 C415.43227338 240.54252367 417.76557971 240.53222433 420.09961033 240.51733112 C421.39635795 240.51630199 422.69310557 240.51527286 424.02914858 240.51421255 C428.27552991 240.07077818 430.86877941 239.11252414 434.64124393 237.13701439 C438.9504973 231.69374697 439.79015692 227.47130663 439.78841496 220.72411156 C439.79392999 219.58223865 439.79392999 219.58223865 439.79955643 218.4172976 C439.81059629 215.85869381 439.81443762 213.30013063 439.81824589 210.74150658 C439.82451029 208.91007928 439.83115707 207.07865325 439.83815861 205.24722862 C439.8555699 200.2656946 439.86612066 195.28417017 439.87436414 190.30261326 C439.87951389 187.19071282 439.88558963 184.07881537 439.89187527 180.96691704 C439.91092748 171.23166071 439.92515871 161.49641197 439.93348724 151.76114058 C439.94326159 140.52123105 439.96958621 129.28151836 440.00998813 118.04167819 C440.0401405 109.35537891 440.05495527 100.66913607 440.05826825 91.98278546 C440.06061966 86.79412371 440.0695921 81.60567222 440.09472942 76.41706657 C440.11799982 71.53492776 440.12224749 66.65313783 440.11196804 61.77095795 C440.11147233 59.98072016 440.11780328 58.19046527 440.13152409 56.40028 C440.14923363 53.95238658 440.14214223 51.50574651 440.12899113 49.05785179 C440.13996037 48.35268071 440.15092962 47.64750963 440.16223127 46.92096972 C440.09802769 41.95669222 439.06172614 37.78375038 435.64124393 34.13701439 C430.58984731 30.68527222 427.32066441 29.63657334 421.08678627 29.63085651 C419.98926504 29.62168647 419.98926504 29.62168647 418.86957166 29.61233118 C416.42232852 29.59675357 413.9760796 29.60958758 411.52883244 29.62235069 C409.75482256 29.61702455 407.98081719 29.60995847 406.20682043 29.60130364 C401.33530711 29.5826584 396.4640974 29.5889878 391.59257138 29.59945667 C386.33752321 29.6064433 381.08253775 29.59045481 375.82750797 29.57745934 C365.5339396 29.55580516 355.24048172 29.55594988 344.94689805 29.56408488 C336.58137066 29.57038197 328.21587552 29.56925051 319.85034847 29.56281281 C318.66020135 29.56191115 317.47005423 29.5610095 316.24384205 29.56008052 C313.82614863 29.55822934 311.40845521 29.55636678 308.99076181 29.55449296 C286.31325037 29.53790954 263.63580113 29.54663831 240.95829343 29.56347854 C220.20653858 29.57817595 199.45492851 29.56354741 178.7031923 29.53470837 C157.39992247 29.50532311 136.09671948 29.49433956 114.79343027 29.50389057 C112.38427191 29.50491314 109.97511354 29.50590775 107.56595516 29.50687408 C105.78788996 29.50758867 105.78788996 29.50758867 103.97390424 29.50831769 C95.61836855 29.51048297 87.26289606 29.50067167 78.90737438 29.48610306 C68.7247364 29.46859654 58.54228302 29.46867303 48.35965235 29.49145471 C43.16369082 29.50261208 37.96805475 29.50572539 32.77210712 29.48715401 C28.01554761 29.47037175 23.25959799 29.47666983 18.50307816 29.5013708 C16.78243234 29.50626188 15.06173755 29.50271719 13.34113265 29.48988336 C0.93142258 29.06031418 0.93142258 29.06031418 -9.35875607 35.13701439 Z " fill="#FEF5C8" transform="translate(42.35875606536865,240.8629856109619)"/>
<path d="M0 0 C1.485 -0.01546875 1.485 -0.01546875 3 -0.03125 C7.05811082 0.68737379 8.88346618 1.74963856 12 4.5 C14.26475519 7.93555678 16.06548994 11.55870656 17.875 15.25 C18.39094727 16.27246826 18.90689453 17.29493652 19.43847656 18.34838867 C20.47909829 20.41490024 21.51303689 22.48479166 22.54003906 24.55810547 C23.85947982 27.21684479 25.20045132 29.86276863 26.5546875 32.50390625 C27.28709089 33.93978169 28.01890796 35.37595643 28.75 36.8125 C29.08499512 37.46895508 29.41999023 38.12541016 29.76513672 38.80175781 C32 43.26667045 32 43.26667045 32 45.5 C32.77819092 45.55043457 33.55638184 45.60086914 34.3581543 45.65283203 C42.56965479 46.22884167 50.67072407 47.17187237 58.8125 48.375 C59.97458984 48.53613281 61.13667969 48.69726562 62.33398438 48.86328125 C77.73872257 51.12275962 77.73872257 51.12275962 82.4375 56.0625 C84.73390927 59.64489846 85.28431013 61.86512501 85.5 66.125 C85.5721875 67.12789063 85.644375 68.13078125 85.71875 69.1640625 C84.13334988 76.52238697 77.11255335 81.37659614 71.8125 86.36328125 C70.11944797 87.96812124 68.4271276 89.57372065 66.73583984 91.18041992 C65.57364842 92.2731414 64.40193304 93.35581666 63.22119141 94.4284668 C56.31647791 100.35813744 56.31647791 100.35813744 52.38427734 108.23168945 C52.60551683 111.14021195 53.21928629 113.69004279 54 116.5 C54.42313005 118.85294618 54.83110674 121.20865107 55.2265625 123.56640625 C55.92211148 127.33066991 56.63064724 131.09162234 57.359375 134.84960938 C60.30763006 150.97182025 60.30763006 150.97182025 57.06835938 157.328125 C54.11636548 161.30921006 50.68328114 163.17307034 46 164.5 C36.99934216 164.55521876 30.07398588 160.34599854 22.375 156.1875 C21.07881761 155.50194408 19.78194621 154.81768924 18.484375 154.13476562 C8.64798103 148.93604317 8.64798103 148.93604317 6.2366333 147.31338501 C3.1847251 145.31595968 1.62331807 144.38926254 -2.03564453 145.03930664 C-5.20208451 146.59957763 -8.33484539 148.17187958 -11.4296875 149.87109375 C-12.32072678 150.35558739 -12.32072678 150.35558739 -13.22976685 150.84986877 C-15.74493275 152.21754775 -18.25396226 153.59630665 -20.76318359 154.97485352 C-40.19826523 165.62945196 -40.19826523 165.62945196 -49 163.5 C-53.40151179 161.09162563 -57.05858782 158.48792789 -58.61499023 153.5480957 C-59.64673536 144.74629671 -57.69061674 136.30564102 -56.0625 127.6875 C-55.62372744 125.31031278 -55.18886395 122.93249432 -54.75840759 120.55378723 C-54.49130046 119.08360153 -54.21892859 117.61435926 -53.94044495 116.14628601 C-53.59400496 114.26997768 -53.29493071 112.38509137 -53 110.5 C-52.83306641 109.66275391 -52.66613281 108.82550781 -52.49414062 107.96289062 C-53.37130681 103.69220893 -56.67799914 101.23730859 -59.74609375 98.30078125 C-60.43179947 97.62452194 -61.11750519 96.94826263 -61.82398987 96.25151062 C-64.01701549 94.0930903 -66.22646352 91.95245287 -68.4375 89.8125 C-70.64142831 87.65848101 -72.84186978 85.50098532 -75.04029846 83.34135437 C-76.40966772 81.99845528 -77.78289743 80.65947957 -79.16026306 79.32478333 C-79.78083084 78.72042953 -80.40139862 78.11607574 -81.04077148 77.4934082 C-81.58926254 76.96221878 -82.1377536 76.43102936 -82.7028656 75.88374329 C-86.00346523 72.36276459 -85.32498889 68.0535281 -85.28125 63.48828125 C-84.9054694 59.49561236 -83.74835565 57.39691541 -81 54.5 C-77.13983137 51.768404 -73.83907274 50.89134591 -69.1875 50.18359375 C-68.5373291 50.08160172 -67.8871582 49.97960968 -67.21728516 49.87452698 C-65.14626953 49.5520453 -63.07335921 49.244512 -61 48.9375 C-59.63917023 48.72820393 -58.2784912 48.51792522 -56.91796875 48.30664062 C-56.24921219 48.20410477 -55.58045563 48.10156891 -54.89143372 47.9959259 C-53.54809892 47.78785229 -52.20553915 47.57471144 -50.86381531 47.35649109 C-47.6702911 46.8482707 -44.55514893 46.47746056 -41.32348633 46.3137207 C-34.92080197 45.94963688 -34.92080197 45.94963688 -29.99365234 42.24243164 C-28.27614475 39.1651653 -26.95956941 36.09848161 -25.6875 32.8125 C-24.70116802 30.53300973 -23.7128899 28.25436056 -22.72265625 25.9765625 C-22.26004395 24.86700195 -21.79743164 23.75744141 -21.32080078 22.61425781 C-19.59357832 18.54171628 -17.67965536 14.60303258 -15.625 10.6875 C-14.77808594 9.00720703 -14.77808594 9.00720703 -13.9140625 7.29296875 C-10.31122718 2.03577028 -6.32457851 -0.06588103 0 0 Z " fill="#FEC500" transform="translate(256,0.5)"/>
<path d="M0 0 C3.70776524 1.65470515 5.13833069 4.45565661 6.81689453 8.05908203 C8.62970749 12.80123377 9.56694247 17.72111052 10.5625 22.6875 C10.80895264 23.87335693 11.05540527 25.05921387 11.30932617 26.28100586 C13.85024974 38.65664013 16.17807047 51.0763556 18.4777832 63.4987793 C18.62199707 64.27464386 18.76621094 65.05050842 18.91479492 65.84988403 C19.18599836 67.31093506 19.45538683 68.77232455 19.72265625 70.23410034 C20.25041342 73.07580549 20.83436132 75.75308396 21.75 78.5 C21.90033691 77.96334717 22.05067383 77.42669434 22.20556641 76.8737793 C25.08001515 66.64156739 28.01383779 56.44088743 31.28540039 46.32788086 C32.93065437 41.20538602 34.46693039 36.05738772 35.953125 30.88671875 C36.54404143 28.85021868 37.13588041 26.81398848 37.72787476 24.77780151 C38.11334762 23.44076986 38.49401745 22.10234279 38.86953735 20.76248169 C41.2215887 12.37635263 43.22475578 5.39673808 50 -0.4375 C54.76007953 -2.27662164 59.13944639 -2.45138133 63.96875 -0.69140625 C69.7974105 2.4512857 71.75100049 6.3737558 73.75 12.5 C74.0903125 13.52996094 74.430625 14.55992187 74.78125 15.62109375 C75.85717125 18.99788713 76.89350656 22.38371203 77.91943359 25.77587891 C78.89751082 28.98381119 79.8952141 32.18533953 80.89453125 35.38671875 C84.64412958 47.40145933 88.37532935 59.41760413 91.875 71.5078125 C92.46242064 73.5165813 93.08816806 75.51450419 93.75 77.5 C93.91651062 76.67838379 94.08302124 75.85676758 94.25457764 75.01025391 C95.83136151 67.24027524 97.4190717 59.47262557 99.01887131 51.70735168 C99.84082217 47.71575873 100.65863036 43.72341252 101.46679688 39.72900391 C102.24793389 35.86899118 103.04017948 32.01140727 103.83994293 28.1552124 C104.14204929 26.68894409 104.44024955 25.22186499 104.73433685 23.75396729 C108.41444054 5.41702219 108.41444054 5.41702219 113.30023193 1.14428711 C117.43737537 -1.54206918 120.92952714 -2.11351473 125.75 -1.5 C131.42549553 0.54317839 135.04873721 4.09747441 137.75 9.5 C138.2181815 16.69835673 136.77238238 23.32483139 135.29296875 30.34765625 C134.89590873 32.2823855 134.49884981 34.21711498 134.10183525 36.15185356 C133.53298265 38.91356923 132.95676382 41.67373075 132.3808403 44.43397903 C131.18226522 50.18845742 129.99946594 55.94621995 128.81349373 61.7033062 C128.35730471 63.91629303 127.90002782 66.12905341 127.44273376 68.34181213 C125.42482178 78.12228719 123.47896255 87.9148973 121.578125 97.71875 C121.08448913 100.24993771 120.59075764 102.78110677 120.09692383 105.31225586 C119.3949292 108.91248761 118.69686584 112.51323425 118.0118103 116.11672974 C117.3822891 119.42514165 116.73759717 122.73027353 116.08984375 126.03515625 C115.91112732 126.99897217 115.73241089 127.96278809 115.54827881 128.95581055 C114.17127769 135.87330212 112.47680933 141.34127595 106.75 145.875 C101.9048828 148.49943849 97.27480744 149.3807664 91.75 148.5 C86.22753129 146.17896243 82.47827592 142.86620251 79.75 137.5 C78.41489194 133.90654752 77.36004807 130.24859546 76.3125 126.5625 C75.7021332 124.48259907 75.09015445 122.40317051 74.4765625 120.32421875 C74.03425293 118.81674072 74.03425293 118.81674072 73.58300781 117.27880859 C72.53365362 113.77829587 71.37643962 110.33059549 70.1875 106.875 C67.29710534 98.35644413 64.90282435 89.70132046 62.47949219 81.04052734 C61.47733024 77.55040111 60.39633811 74.08555366 59.30517578 70.62231445 C58.75 68.5 58.75 68.5 58.75 65.5 C58.09 65.5 57.43 65.5 56.75 65.5 C56.65058105 66.15629395 56.55116211 66.81258789 56.44873047 67.48876953 C55.25435448 74.73294735 53.28798158 81.45159044 50.875 88.375 C50.1474011 90.50876146 49.42082647 92.64287248 48.6953125 94.77734375 C48.35274414 95.78007324 48.01017578 96.78280273 47.65722656 97.81591797 C46.63465534 100.84125383 45.6733496 103.88046418 44.75 106.9375 C42.76981574 113.44381972 40.77722239 119.94567172 38.75 126.4375 C38.41742188 127.52925537 38.08484375 128.62101074 37.7421875 129.74584961 C33.79941849 142.2891716 33.79941849 142.2891716 28.25 146.3125 C23.56902754 148.53596192 18.92881497 149.32560818 13.75 148.5 C8.23247319 146.18103946 4.4784845 142.8634016 1.75 137.5 C0.74188768 134.20958154 0.17163293 130.86322522 -0.421875 127.4765625 C-0.84525209 125.22265176 -1.27054633 122.96910069 -1.69726562 120.71582031 C-1.93711182 119.43259888 -2.17695801 118.14937744 -2.42407227 116.82727051 C-3.88181263 109.11849144 -5.4780409 101.43658478 -7.0466156 93.74977875 C-8.04820109 88.83662229 -9.04320841 83.92213324 -10.0390625 79.0078125 C-11.27781857 72.898203 -12.51732812 66.78874799 -13.75878906 60.6796875 C-14.77777786 55.66510194 -15.79481145 50.65012332 -16.81053925 45.63487625 C-17.19415632 43.74257543 -17.57848798 41.85041931 -17.96356964 39.95841599 C-18.49872871 37.32860692 -19.03138551 34.69830237 -19.56347656 32.06787109 C-19.72033936 31.30009842 -19.87720215 30.53232574 -20.03881836 29.74128723 C-23.70902066 11.53306785 -23.70902066 11.53306785 -21.30859375 6.54296875 C-15.98701196 -1.38101668 -8.90724254 -3.73208486 0 0 Z " fill="#FEF5C7" transform="translate(96.25,302.5)"/>
<path d="M0 0 C4.00637689 3.27468864 5.75129329 6.78262182 7.99609375 11.375 C8.64167236 12.63461548 8.64167236 12.63461548 9.30029297 13.91967773 C11.29559143 17.83473463 13.20309918 21.77254922 14.9765625 25.79296875 C15.26861572 26.43443848 15.56066895 27.0759082 15.86157227 27.73681641 C16.63286075 29.44982362 17.36665213 31.17957467 18.09765625 32.91015625 C20.86210243 36.56120768 23.74739836 36.88776171 28.05859375 37.5 C29.07550293 37.65460693 30.09241211 37.80921387 31.14013672 37.96850586 C35.86269357 38.65892425 40.59154133 39.2951348 45.32421875 39.91210938 C46.48695313 40.07388672 47.6496875 40.23566406 48.84765625 40.40234375 C49.89646973 40.54148193 50.9452832 40.68062012 52.02587891 40.82397461 C57.99856771 42.15535243 61.58845146 44.48757224 65.05859375 49.5 C66.32308657 52.02898565 66.29776217 53.92480454 66.37109375 56.75 C66.42716797 58.14992188 66.42716797 58.14992188 66.484375 59.578125 C65.58855255 65.7256038 61.02374706 69.71299724 56.6015625 73.73046875 C55.56038025 74.70742146 54.52071028 75.68598794 53.48242188 76.66601562 C51.86505449 78.18461624 50.24154555 79.69158017 48.59008789 81.1730957 C42.06312127 86.73968418 42.06312127 86.73968418 38.50756836 94.22412109 C38.73886663 97.11259283 39.32098786 99.69881685 40.05859375 102.5 C40.42178349 104.66933149 40.76882241 106.84141482 41.1015625 109.015625 C41.6726739 112.40672245 42.25413923 115.79485038 42.86132812 119.1796875 C43.86753118 125.25246069 44.56961882 129.78819297 42.05859375 135.5 C39.10239843 138.9109946 36.21852836 142.11123349 31.63061523 142.93701172 C22.3925588 143.31337409 16.00645322 140.09210233 8.12109375 135.625 C6.91861047 134.96508678 5.71483709 134.30751873 4.50976562 133.65234375 C2.3045241 132.45128576 0.10522265 131.23920237 -2.08569336 130.01220703 C-3.49927124 129.26366455 -3.49927124 129.26366455 -4.94140625 128.5 C-5.75464355 128.03988525 -6.56788086 127.57977051 -7.40576172 127.10571289 C-11.22998477 126.19218532 -13.10522518 127.66616768 -16.484375 129.55078125 C-17.09404617 129.88418015 -17.70371735 130.21757904 -18.3318634 130.56108093 C-20.27404095 131.62814186 -22.2011603 132.7196217 -24.12890625 133.8125 C-25.43722823 134.53747515 -26.74646487 135.26080227 -28.05664062 135.98242188 C-30.4515913 137.30413914 -32.83900315 138.63685304 -35.22338867 139.9777832 C-40.78910354 143.09484349 -45.59583393 143.09723034 -51.94140625 142.5 C-56.43817173 140.36995319 -58.96622156 138.07411192 -60.94140625 133.5 C-62.68522355 125.6903236 -60.98500356 118.57375926 -59.50390625 110.8125 C-59.02001015 108.22631239 -58.5443645 105.63881306 -58.0703125 103.05078125 C-57.7465564 101.34402222 -57.7465564 101.34402222 -57.41625977 99.6027832 C-57.25955811 98.57886475 -57.10285645 97.55494629 -56.94140625 96.5 C-56.7405542 95.23434204 -56.7405542 95.23434204 -56.53564453 93.94311523 C-57.15599473 90.20795008 -59.62809581 88.31370107 -62.3046875 85.859375 C-63.43041829 84.77742672 -64.55606667 83.69539269 -65.68164062 82.61328125 C-67.46138067 80.93261952 -69.24600245 79.25739104 -71.03393555 77.58544922 C-84.30498343 65.10915216 -84.30498343 65.10915216 -84.94140625 57.5 C-84.48485456 51.46794347 -82.23140498 47.69023131 -77.94140625 43.5 C-73.89885545 41.49042648 -69.76878149 40.89458663 -65.33984375 40.31640625 C-63.86583696 40.10906818 -62.39188003 39.90137533 -60.91796875 39.69335938 C-58.60998798 39.37494077 -56.30160385 39.06052686 -53.9921875 38.75268555 C-51.75223357 38.45153724 -49.51487705 38.13497314 -47.27734375 37.81640625 C-46.24134537 37.68498985 -46.24134537 37.68498985 -45.18441772 37.55091858 C-42.5762035 37.17274607 -40.41134588 36.81289884 -38.1953125 35.33740234 C-36.34635327 32.62804348 -34.94077347 29.74225872 -33.54296875 26.78515625 C-32.89226236 25.4458006 -32.24120988 24.10661305 -31.58984375 22.76757812 C-30.575933 20.66540644 -29.56594614 18.56153379 -28.5625 16.4543457 C-27.58755012 14.41340282 -26.59752158 12.38032865 -25.60546875 10.34765625 C-25.31257965 9.72149918 -25.01969055 9.0953421 -24.71792603 8.45021057 C-22.20990065 3.34657343 -19.24747414 0.57616502 -14.12890625 -1.8125 C-8.79624373 -2.96268211 -4.86265569 -2.47976067 0 0 Z " fill="#FEB600" transform="translate(445.94140625,68.5)"/>
<path d="M0 0 C4.00637689 3.27468864 5.75129329 6.78262182 7.99609375 11.375 C8.64167236 12.63461548 8.64167236 12.63461548 9.30029297 13.91967773 C11.29559143 17.83473463 13.20309918 21.77254922 14.9765625 25.79296875 C15.26861572 26.43443848 15.56066895 27.0759082 15.86157227 27.73681641 C16.63286075 29.44982362 17.36665213 31.17957467 18.09765625 32.91015625 C20.86210243 36.56120768 23.74739836 36.88776171 28.05859375 37.5 C29.07550293 37.65460693 30.09241211 37.80921387 31.14013672 37.96850586 C35.86269357 38.65892425 40.59154133 39.2951348 45.32421875 39.91210938 C46.48695313 40.07388672 47.6496875 40.23566406 48.84765625 40.40234375 C49.89646973 40.54148193 50.9452832 40.68062012 52.02587891 40.82397461 C57.99856771 42.15535243 61.58845146 44.48757224 65.05859375 49.5 C66.32308657 52.02898565 66.29776217 53.92480454 66.37109375 56.75 C66.42716797 58.14992188 66.42716797 58.14992188 66.484375 59.578125 C65.5886218 65.72512858 61.00968822 69.73136104 56.6015625 73.765625 C55.56053189 74.74730309 54.52085728 75.73042081 53.48242188 76.71484375 C51.86390774 78.24066765 50.23942459 79.75603499 48.59008789 81.24853516 C42.14976929 86.73332654 42.14976929 86.73332654 38.50976562 94.03662109 C38.74342404 96.66633081 39.32018216 98.96665434 40.05859375 101.5 C40.41154833 103.47881093 40.74674754 105.46085087 41.06640625 107.4453125 C41.62278047 110.55074877 42.1889899 113.6536246 42.7734375 116.75390625 C44.06075787 124.0240249 44.87612125 130.05968009 41.30859375 136.8125 C38.44084933 140.23786139 35.85569158 142.1337232 31.43530273 143.03466797 C22.31744568 143.30165538 15.90644041 140.03544449 8.12109375 135.625 C6.91861047 134.96508678 5.71483709 134.30751873 4.50976562 133.65234375 C2.3045241 132.45128576 0.10522265 131.23920237 -2.08569336 130.01220703 C-3.49927124 129.26366455 -3.49927124 129.26366455 -4.94140625 128.5 C-5.75464355 128.03988525 -6.56788086 127.57977051 -7.40576172 127.10571289 C-11.22998477 126.19218532 -13.10522518 127.66616768 -16.484375 129.55078125 C-17.09404617 129.88418015 -17.70371735 130.21757904 -18.3318634 130.56108093 C-20.27404095 131.62814186 -22.2011603 132.7196217 -24.12890625 133.8125 C-25.43722823 134.53747515 -26.74646487 135.26080227 -28.05664062 135.98242188 C-30.4515913 137.30413914 -32.83900315 138.63685304 -35.22338867 139.9777832 C-40.79438274 143.09780009 -45.58747932 143.19876946 -51.94140625 142.5 C-56.53067192 140.78901942 -58.54230046 138.30530679 -60.69921875 133.953125 C-62.48345561 128.86028861 -61.69516215 124.45932377 -60.75390625 119.25 C-60.6046167 118.32703125 -60.45532715 117.4040625 -60.30151367 116.453125 C-59.86826689 113.79817752 -59.40901388 111.14908073 -58.94140625 108.5 C-58.54467116 106.16681982 -58.14863121 103.83352109 -57.75390625 101.5 C-57.59535156 100.63375 -57.43679687 99.7675 -57.2734375 98.875 C-57.10908203 97.699375 -57.10908203 97.699375 -56.94140625 96.5 C-56.82321533 95.745979 -56.70502441 94.99195801 -56.58325195 94.21508789 C-57.10791654 90.23772263 -59.54193695 88.31545677 -62.33984375 85.68359375 C-63.16508041 84.87608421 -63.16508041 84.87608421 -64.00698853 84.05226135 C-65.76535134 82.3350749 -67.53964214 80.63562282 -69.31640625 78.9375 C-71.08336186 77.2333406 -72.84660303 75.52563171 -74.60440063 73.81202698 C-75.69808285 72.74744299 -76.79747005 71.68868052 -77.90316772 70.63658142 C-81.3825638 67.27045743 -83.64823447 64.75674088 -84.27734375 59.9140625 C-84.36137606 53.91415541 -84.13623883 50.16092508 -79.94140625 45.5 C-76.54003992 42.37948043 -73.44596315 41.77537455 -68.94140625 41 C-68.25731689 40.87818359 -67.57322754 40.75636719 -66.8684082 40.63085938 C-62.77225421 39.91808746 -58.66599349 39.31380021 -54.546875 38.75 C-53.64646484 38.62431641 -52.74605469 38.49863281 -51.81835938 38.36914062 C-50.04917856 38.12631189 -48.27830028 37.89549517 -46.50585938 37.67773438 C-45.28866211 37.51241211 -45.28866211 37.51241211 -44.046875 37.34375 C-43.32653076 37.25287109 -42.60618652 37.16199219 -41.86401367 37.06835938 C-39.36583396 36.32984987 -38.54998316 35.5628522 -36.94140625 33.5 C-35.73902252 31.27532131 -34.62194236 29.06776087 -33.54296875 26.78515625 C-32.89226236 25.4458006 -32.24120988 24.10661305 -31.58984375 22.76757812 C-30.575933 20.66540644 -29.56594614 18.56153379 -28.5625 16.4543457 C-27.58755012 14.41340282 -26.59752158 12.38032865 -25.60546875 10.34765625 C-25.31257965 9.72149918 -25.01969055 9.0953421 -24.71792603 8.45021057 C-22.20990065 3.34657343 -19.24747414 0.57616502 -14.12890625 -1.8125 C-8.79624373 -2.96268211 -4.86265569 -2.47976067 0 0 Z " fill="#FEB600" transform="translate(83.94140625,68.5)"/>
<path d="M0 0 C7.34630784 4.89753856 12.11703311 12.82396363 16.9375 20.0625 C18.25547547 22.01892677 19.57452133 23.97463281 20.89453125 25.9296875 C21.5695166 26.9309668 22.24450195 27.93224609 22.93994141 28.96386719 C26.29086768 33.90249235 29.70764468 38.79471247 33.125 43.6875 C38.65100179 51.60859401 44.14021959 59.55303408 49.57666016 67.53588867 C52.25471388 71.46510542 54.95627765 75.37622206 57.68530273 79.27026367 C58.30823715 80.15936935 58.93117157 81.04847504 59.57298279 81.96452332 C60.04389847 82.63623062 60.51481415 83.30793793 61 84 C61.00364563 83.07371796 61.00729126 82.14743591 61.01104736 81.19308472 C61.04895216 72.4533501 61.10583328 63.7139877 61.18390274 54.97451591 C61.22337109 50.48169391 61.25556264 45.98906771 61.27099609 41.49609375 C61.28616703 37.15810775 61.32061998 32.82066008 61.36830902 28.48291397 C61.38311838 26.83001516 61.39104076 25.17703949 61.39188385 23.52407455 C61.39425671 21.20410882 61.42135907 18.88562697 61.45410156 16.56591797 C61.46742523 14.58735306 61.46742523 14.58735306 61.48101807 12.56881714 C62.26588289 7.17163691 64.68928872 4.13197792 68.75 0.625 C73.46398801 -1.73199401 77.2225803 -1.85342533 82.1484375 -0.33984375 C87.31695568 1.87935272 89.73255006 4.8201625 92 10 C92.54093933 13.66957092 92.54093933 13.66957092 92.59838867 17.65258789 C92.62200061 18.75384034 92.62200061 18.75384034 92.64608955 19.87734032 C92.69309944 22.30504296 92.71211996 24.7320809 92.73046875 27.16015625 C92.75719564 28.89260612 92.7854011 30.62503373 92.81498718 32.35743713 C92.88785444 36.96599019 92.93483318 41.57444088 92.9743576 46.18338776 C92.99966962 48.96371049 93.03142007 51.74388071 93.06549072 54.52410889 C93.19993397 65.62235642 93.27140772 76.71958823 93.29516602 87.81860352 C93.30421227 91.6201895 93.32558493 95.42143175 93.35668945 99.22290039 C93.39511439 103.92335798 93.41391965 108.62350501 93.41844749 113.32411385 C93.42327864 115.08429179 93.43479175 116.84446601 93.45348549 118.60455132 C93.47788424 121.03939844 93.47691916 123.47302665 93.4699707 125.90795898 C93.48278076 126.6127388 93.49559082 127.31751862 93.50878906 128.0436554 C93.45281744 133.44298908 91.91650016 137.54333056 89 142 C84.80491353 145.89543744 82.04511585 147.21290553 76.375 147.5 C75.37210937 147.5721875 74.36921875 147.644375 73.3359375 147.71875 C65.1521635 145.95550127 60.3029324 138.14645597 56 131.5 C54.87883688 129.81558509 53.75638096 128.13203016 52.6328125 126.44921875 C52.04661133 125.56540527 51.46041016 124.6815918 50.85644531 123.77099609 C47.59642701 118.90497718 44.23071144 114.11278347 40.875 109.3125 C34.03579431 99.50043101 27.24396033 89.65709525 20.48583984 79.7890625 C19.44970917 78.27633108 18.41317664 76.76387482 17.3762207 75.25170898 C16.39594262 73.82218327 15.41657213 72.39203464 14.43823242 70.96118164 C12.39797869 67.83741913 12.39797869 67.83741913 10 65 C9.99635437 65.88425659 9.99270874 66.76851318 9.98895264 67.67956543 C9.95099659 76.03606576 9.89405765 84.39217883 9.81609726 92.74840546 C9.77668363 97.04387379 9.74446538 101.339139 9.72900391 105.63476562 C9.71379673 109.78473898 9.67928009 113.93415369 9.63169098 118.08387756 C9.61691883 119.66255319 9.60896138 121.24130859 9.60811615 122.8200531 C9.59141924 138.37692435 9.59141924 138.37692435 5 145 C1.10952806 148.28753175 -2.72399881 149.75005844 -7.9453125 149.4453125 C-11.85829057 148.59725261 -15.18472738 146.84024177 -18 144 C-21.56342198 137.63023525 -21.43187569 131.73427604 -21.40405273 124.55053711 C-21.41091599 123.31069565 -21.41777924 122.07085419 -21.42485046 120.79344177 C-21.43997045 117.40907708 -21.44162556 114.02526526 -21.43590808 110.640908 C-21.43280861 107.81031461 -21.43891681 104.97977063 -21.44494683 102.14918429 C-21.45896954 95.47075189 -21.45744856 88.7924475 -21.44604492 82.11401367 C-21.43455511 75.23320512 -21.44865865 68.35278595 -21.4754414 61.47202867 C-21.49761338 55.55334356 -21.50423275 49.63478056 -21.49836498 43.71605688 C-21.49499904 40.18577684 -21.49738648 36.65574659 -21.51461601 33.12550163 C-21.53298656 29.19020231 -21.51888257 25.25538076 -21.50170898 21.32006836 C-21.51137695 20.1557428 -21.52104492 18.99141724 -21.53100586 17.79180908 C-21.47399849 11.55932473 -21.21936691 7.72389862 -17 3 C-11.88772393 -1.45685606 -6.42302467 -2.14100822 0 0 Z " fill="#FEF4C7" transform="translate(345,302)"/>
<path d="M0 0 C4.44283595 2.47773543 6.64509106 4.99777318 8.25 9.8125 C8.3483427 11.51982104 8.38925643 13.230709 8.39717102 14.94084167 C8.40432632 16.00200195 8.41148163 17.06316223 8.41885376 18.15647888 C8.42288712 19.90276329 8.42288712 19.90276329 8.42700195 21.68432617 C8.43357315 22.91061737 8.44014435 24.13690857 8.44691467 25.40036011 C8.46666552 29.46873213 8.47831695 33.5370647 8.48828125 37.60546875 C8.49232983 39.00789217 8.49644679 40.4103154 8.50063133 41.81273842 C8.51968085 48.40364666 8.53391102 54.99454372 8.5422433 61.58547419 C8.55200796 69.18329382 8.578308 76.78082151 8.61874419 84.37853831 C8.6489531 90.25723391 8.66371678 96.13584606 8.66702431 102.01461774 C8.66936985 105.52270137 8.67826454 109.03047305 8.70348549 112.53847313 C8.73120238 116.45697632 8.72692045 120.37509889 8.7199707 124.29370117 C8.73278076 125.44776962 8.74559082 126.60183807 8.75878906 127.7908783 C8.71729706 134.21596992 8.22760935 139.55565937 4.25 144.8125 C0.38261628 148.11625902 -3.49313015 149.55522709 -8.6953125 149.26171875 C-13.65652496 148.17704302 -17.49985576 145.65771675 -20.33584595 141.4717865 C-22.38472605 136.17007324 -22.16782293 131.22137911 -22.13818359 125.58422852 C-22.14344055 124.35589294 -22.14869751 123.12755737 -22.15411377 121.86199951 C-22.16503378 118.50435781 -22.16250415 115.14727278 -22.15297651 111.7896626 C-22.1453588 108.26820987 -22.15243153 104.74678024 -22.15713501 101.22532654 C-22.16258715 95.31155143 -22.15541598 89.39788886 -22.14111328 83.48413086 C-22.12479527 76.65851773 -22.13007113 69.83317358 -22.1465925 63.00756699 C-22.16023189 57.13644892 -22.16211485 51.26541156 -22.15427649 45.39428276 C-22.14961243 41.89251071 -22.14893986 38.39086484 -22.15888596 34.88910103 C-22.16920699 30.98268408 -22.15487815 27.07656527 -22.13818359 23.17016602 C-22.14425629 22.01721542 -22.15032898 20.86426483 -22.15658569 19.67637634 C-22.10320374 12.92718195 -21.8165472 7.34485184 -17.20703125 2.03515625 C-11.26496977 -2.15674935 -6.83799602 -2.16536541 0 0 Z " fill="#FEF5C8" transform="translate(285.75,302.1875)"/>
</svg>
